<?xml version="1.0" encoding="UTF-8" standalone="no" ?>
<!DOCTYPE svg PUBLIC "-//W3C//DTD SVG 1.1//EN" "http://www.w3.org/Graphics/SVG/1.1/DTD/svg11.dtd">
<svg xmlns="http://www.w3.org/2000/svg" xmlns:xlink="http://www.w3.org/1999/xlink" version="1.1" width="1080" height="1080" viewBox="0 0 1080 1080" xml:space="preserve">
<desc>Created with Fabric.js 5.2.4</desc>
<defs>
</defs>
<g transform="matrix(1 0 0 1 540 540)" id="ab8b16e1-727e-44af-a9f1-7a4a9f48fc6c"  >
<rect style="stroke: none; stroke-width: 1; stroke-dasharray: none; stroke-linecap: butt; stroke-dashoffset: 0; stroke-linejoin: miter; stroke-miterlimit: 4; fill: rgb(255,255,255); fill-rule: nonzero; opacity: 1; visibility: hidden;" vector-effect="non-scaling-stroke"  x="-540" y="-540" rx="0" ry="0" width="1080" height="1080" />
</g>
<g transform="matrix(1 0 0 1 540 540)" id="bf71582a-c274-4e19-9590-fa09fd8c0bfc"  >
</g>
<g transform="matrix(1 0 0 1 540 540)"  >
<g style="" vector-effect="non-scaling-stroke"   >
		<g transform="matrix(1 0 0 1 10.23 13.64)"  >
<rect style="stroke: none; stroke-width: 1; stroke-dasharray: none; stroke-linecap: butt; stroke-dashoffset: 0; stroke-linejoin: miter; stroke-miterlimit: 4; fill: rgb(60,239,40); fill-rule: nonzero; opacity: 1;" vector-effect="non-scaling-stroke"  x="-55.975" y="-14.59" rx="14.5878" ry="14.5878" width="111.95" height="29.18" />
</g>
		<g transform="matrix(1 0 0 1 9.42 14.92)"  >
<path style="stroke: none; stroke-width: 1; stroke-dasharray: none; stroke-linecap: butt; stroke-dashoffset: 0; stroke-linejoin: miter; stroke-miterlimit: 4; fill: rgb(60,239,40); fill-rule: nonzero; opacity: 1;" vector-effect="non-scaling-stroke"  transform=" translate(-81.51, -48.46)" d="M 41.5059 43.6555 L 41.5059 45.1441 L 36.302 45.1441 L 36.302 43.6555 L 41.5059 43.6555 Z M 37.6976 41.3729 L 39.5521 41.3729 L 39.5521 50.3852 C 39.5521 50.7449 39.6059 51.0158 39.7134 51.1977 C 39.8209 51.3755 39.9594 51.4975 40.129 51.5636 C 40.3026 51.6257 40.4908 51.6567 40.6934 51.6567 C 40.8422 51.6567 40.9725 51.6463 41.0841 51.6257 C 41.1958 51.605 41.2826 51.5885 41.3446 51.576 L 41.6796 53.1081 C 41.5721 53.1494 41.4191 53.1908 41.2206 53.2321 C 41.0221 53.2776 40.774 53.3024 40.4763 53.3065 C 39.9884 53.3148 39.5335 53.228 39.1117 53.046 C 38.69 52.8641 38.3488 52.5829 38.0883 52.2025 C 37.8278 51.8221 37.6976 51.3445 37.6976 50.7697 L 37.6976 41.3729 Z M 45.7913 47.5258 L 45.7913 53.1825 L 43.9367 53.1825 L 43.9367 40.4798 L 45.7665 40.4798 L 45.7665 45.2061 L 45.8843 45.2061 C 46.1076 44.6933 46.4487 44.286 46.9077 43.9842 C 47.3667 43.6823 47.9663 43.5314 48.7065 43.5314 C 49.3598 43.5314 49.9304 43.6658 50.4183 43.9346 C 50.9104 44.2033 51.2908 44.6044 51.5596 45.1379 C 51.8325 45.6671 51.969 46.3287 51.969 47.1227 L 51.969 53.1825 L 50.1144 53.1825 L 50.1144 47.3459 C 50.1144 46.6471 49.9345 46.1054 49.5748 45.7209 C 49.2151 45.3322 48.7147 45.1379 48.0738 45.1379 C 47.6355 45.1379 47.2427 45.2309 46.8953 45.417 C 46.5521 45.603 46.2813 45.8759 46.0828 46.2357 C 45.8884 46.5913 45.7913 47.0213 45.7913 47.5258 Z M 58.7245 53.3748 C 57.7858 53.3748 56.9774 53.1742 56.2993 52.7731 C 55.6253 52.3679 55.1043 51.7993 54.7363 51.0674 C 54.3724 50.3314 54.1905 49.4693 54.1905 48.481 C 54.1905 47.5051 54.3724 46.6451 54.7363 45.9008 C 55.1043 45.1565 55.617 44.5755 56.2745 44.1579 C 56.9361 43.7402 57.7093 43.5314 58.5942 43.5314 C 59.1318 43.5314 59.6528 43.6203 60.1573 43.7981 C 60.6617 43.9759 61.1145 44.255 61.5156 44.6354 C 61.9167 45.0159 62.233 45.51 62.4646 46.1178 C 62.6962 46.7216 62.8119 47.4555 62.8119 48.3197 L 62.8119 48.9772 L 55.2387 48.9772 L 55.2387 47.5878 L 60.9946 47.5878 C 60.9946 47.0999 60.8954 46.6678 60.6969 46.2915 C 60.4984 45.9111 60.2193 45.6113 59.8595 45.3922 C 59.5039 45.173 59.0863 45.0634 58.6066 45.0634 C 58.0856 45.0634 57.6308 45.1916 57.2421 45.448 C 56.8575 45.7002 56.5598 46.031 56.3489 46.4404 C 56.1422 46.8456 56.0388 47.286 56.0388 47.7615 L 56.0388 48.8469 C 56.0388 49.4837 56.1504 50.0254 56.3737 50.472 C 56.6012 50.9186 56.9175 51.2597 57.3227 51.4954 C 57.7279 51.727 58.2014 51.8428 58.7431 51.8428 C 59.0946 51.8428 59.415 51.7931 59.7045 51.6939 C 59.9939 51.5905 60.2441 51.4375 60.455 51.2349 C 60.6659 51.0323 60.8271 50.7821 60.9388 50.4844 L 62.6941 50.8007 C 62.5535 51.3176 62.3013 51.7704 61.9374 52.1591 C 61.5776 52.5436 61.1249 52.8434 60.579 53.0584 C 60.0373 53.2693 59.4192 53.3748 58.7245 53.3748 Z M 69.0387 56.9536 C 68.282 56.9536 67.6307 56.8544 67.0849 56.6559 C 66.5432 56.4574 66.1008 56.1948 65.7576 55.8682 C 65.4144 55.5415 65.158 55.1838 64.9884 54.7951 L 66.5825 54.1377 C 66.6941 54.3196 66.843 54.5119 67.0291 54.7145 C 67.2193 54.9213 67.4757 55.097 67.7982 55.2417 C 68.1248 55.3865 68.5445 55.4588 69.0573 55.4588 C 69.7602 55.4588 70.3412 55.2872 70.8002 54.944 C 71.2592 54.6049 71.4887 54.0633 71.4887 53.319 L 71.4887 51.4458 L 71.3708 51.4458 C 71.2592 51.6484 71.0979 51.8738 70.887 52.1219 C 70.6803 52.37 70.395 52.585 70.0311 52.7669 C 69.6672 52.9489 69.1937 53.0398 68.6107 53.0398 C 67.8581 53.0398 67.18 52.8641 66.5763 52.5126 C 65.9767 52.157 65.5012 51.6339 65.1497 50.9434 C 64.8024 50.2487 64.6287 49.3948 64.6287 48.3818 C 64.6287 47.3687 64.8003 46.5003 65.1435 45.7767 C 65.4909 45.0531 65.9664 44.499 66.5701 44.1144 C 67.1738 43.7257 67.8581 43.5314 68.6231 43.5314 C 69.2144 43.5314 69.692 43.6306 70.0559 43.8291 C 70.4198 44.0235 70.703 44.2509 70.9056 44.5114 C 71.1124 44.7719 71.2716 45.0014 71.3832 45.1999 L 71.5197 45.1999 L 71.5197 43.6555 L 73.337 43.6555 L 73.337 53.3934 C 73.337 54.2121 73.1468 54.884 72.7664 55.4092 C 72.386 55.9343 71.8712 56.323 71.222 56.5753 C 70.5769 56.8275 69.8491 56.9536 69.0387 56.9536 Z M 69.0201 51.5016 C 69.5535 51.5016 70.0042 51.3776 70.3722 51.1295 C 70.7444 50.8772 71.0256 50.5175 71.2158 50.0502 C 71.4101 49.5788 71.5073 49.0144 71.5073 48.3569 C 71.5073 47.716 71.4122 47.1516 71.222 46.6637 C 71.0318 46.1757 70.7526 45.7953 70.3846 45.5224 C 70.0166 45.2454 69.5618 45.1068 69.0201 45.1068 C 68.4618 45.1068 67.9967 45.2516 67.6245 45.541 C 67.2524 45.8263 66.9712 46.215 66.781 46.7071 C 66.5949 47.1991 66.5019 47.7491 66.5019 48.3569 C 66.5019 48.9813 66.597 49.5292 66.7872 50.0006 C 66.9774 50.472 67.2586 50.84 67.6307 51.1047 C 68.007 51.3693 68.4701 51.5016 69.0201 51.5016 Z M 75.9989 53.1825 L 75.9989 43.6555 L 77.7914 43.6555 L 77.7914 45.1689 L 77.8906 45.1689 C 78.0643 44.6561 78.3703 44.253 78.8086 43.9594 C 79.2511 43.6617 79.7514 43.5128 80.3096 43.5128 C 80.4254 43.5128 80.5619 43.5169 80.719 43.5252 C 80.8802 43.5335 81.0064 43.5438 81.0973 43.5562 L 81.0973 45.3301 C 81.0229 45.3095 80.8906 45.2867 80.7004 45.2619 C 80.5102 45.233 80.32 45.2185 80.1297 45.2185 C 79.6914 45.2185 79.3007 45.3115 78.9575 45.4976 C 78.6184 45.6795 78.3496 45.9338 78.1511 46.2605 C 77.9527 46.583 77.8534 46.951 77.8534 47.3645 L 77.8534 53.1825 L 75.9989 53.1825 Z M 87.1442 53.3562 C 86.2552 53.3562 85.4695 53.2032 84.7873 52.8972 C 84.1091 52.5912 83.5778 52.1694 83.1932 51.6319 C 82.8087 51.0943 82.6185 50.4823 82.6226 49.7959 C 82.6185 49.2584 82.728 48.7642 82.9513 48.3135 C 83.1788 47.8587 83.4868 47.4803 83.8755 47.1785 C 84.2642 46.8725 84.6984 46.6781 85.178 46.5954 L 85.178 46.521 C 84.5454 46.368 84.0388 46.0289 83.6584 45.5038 C 83.278 44.9787 83.0899 44.3749 83.094 43.6927 C 83.0899 43.0435 83.2615 42.4646 83.6088 41.956 C 83.9603 41.4432 84.442 41.0401 85.054 40.7465 C 85.666 40.4529 86.3627 40.3061 87.1442 40.3061 C 87.9175 40.3061 88.608 40.455 89.2159 40.7527 C 89.8278 41.0463 90.3096 41.4494 90.661 41.9622 C 91.0125 42.4708 91.1903 43.0476 91.1945 43.6927 C 91.1903 44.3749 90.996 44.9787 90.6114 45.5038 C 90.2269 46.0289 89.7265 46.368 89.1104 46.521 L 89.1104 46.5954 C 89.5859 46.6781 90.0139 46.8725 90.3943 47.1785 C 90.7789 47.4803 91.0849 47.8587 91.3123 48.3135 C 91.5439 48.7642 91.6617 49.2584 91.6658 49.7959 C 91.6617 50.4823 91.4674 51.0943 91.0828 51.6319 C 90.6983 52.1694 90.1648 52.5912 89.4826 52.8972 C 88.8044 53.2032 88.025 53.3562 87.1442 53.3562 Z M 87.1442 51.7869 C 87.6694 51.7869 88.1242 51.7001 88.5088 51.5264 C 88.8933 51.3486 89.191 51.1026 89.4019 50.7883 C 89.6128 50.4699 89.7203 50.0978 89.7245 49.6719 C 89.7203 49.2294 89.6045 48.8387 89.3771 48.4996 C 89.1538 48.1605 88.8499 47.8938 88.4654 47.6995 C 88.0808 47.5051 87.6404 47.408 87.1442 47.408 C 86.6439 47.408 86.1994 47.5051 85.8107 47.6995 C 85.422 47.8938 85.116 48.1605 84.8927 48.4996 C 84.6694 48.8387 84.5598 49.2294 84.564 49.6719 C 84.5598 50.0978 84.6612 50.4699 84.8679 50.7883 C 85.0788 51.1026 85.3786 51.3486 85.7673 51.5264 C 86.156 51.7001 86.6149 51.7869 87.1442 51.7869 Z M 87.1442 45.8759 C 87.566 45.8759 87.9402 45.7912 88.2669 45.6216 C 88.5935 45.4521 88.8499 45.2164 89.036 44.9146 C 89.2262 44.6127 89.3234 44.2592 89.3275 43.8539 C 89.3234 43.457 89.2283 43.1096 89.0422 42.8119 C 88.8602 42.5142 88.6059 42.2847 88.2793 42.1234 C 87.9526 41.958 87.5743 41.8753 87.1442 41.8753 C 86.7059 41.8753 86.3214 41.958 85.9906 42.1234 C 85.6639 42.2847 85.4096 42.5142 85.2276 42.8119 C 85.0457 43.1096 84.9568 43.457 84.9609 43.8539 C 84.9568 44.2592 85.0478 44.6127 85.2338 44.9146 C 85.4199 45.2164 85.6763 45.4521 86.003 45.6216 C 86.3338 45.7912 86.7142 45.8759 87.1442 45.8759 Z M 94.2362 53.1825 L 94.2362 40.4798 L 96.0908 40.4798 L 96.0908 45.1999 L 96.2024 45.1999 C 96.3099 45.0014 96.465 44.7719 96.6676 44.5114 C 96.8702 44.2509 97.1514 44.0235 97.5111 43.8291 C 97.8709 43.6306 98.3464 43.5314 98.9377 43.5314 C 99.7068 43.5314 100.393 43.7257 100.997 44.1144 C 101.601 44.5031 102.074 45.0634 102.417 45.7953 C 102.765 46.5272 102.938 47.408 102.938 48.4376 C 102.938 49.4672 102.767 50.35 102.424 51.086 C 102.08 51.8179 101.609 52.3824 101.009 52.7793 C 100.41 53.1722 99.7254 53.3686 98.9563 53.3686 C 98.3774 53.3686 97.904 53.2714 97.5359 53.0771 C 97.1721 52.8827 96.8868 52.6553 96.68 52.3948 C 96.4733 52.1343 96.3141 51.9027 96.2024 51.7001 L 96.0473 51.7001 L 96.0473 53.1825 L 94.2362 53.1825 Z M 96.0536 48.419 C 96.0536 49.0888 96.1507 49.676 96.3451 50.1805 C 96.5394 50.685 96.8206 51.0798 97.1886 51.3652 C 97.5566 51.6463 98.0073 51.7869 98.5408 51.7869 C 99.0948 51.7869 99.558 51.6401 99.9301 51.3466 C 100.302 51.0488 100.583 50.6457 100.774 50.1371 C 100.968 49.6285 101.065 49.0558 101.065 48.419 C 101.065 47.7905 100.97 47.226 100.78 46.7257 C 100.594 46.2254 100.313 45.8305 99.9363 45.541 C 99.5642 45.2516 99.099 45.1068 98.5408 45.1068 C 98.0032 45.1068 97.5484 45.2454 97.1762 45.5224 C 96.8082 45.7995 96.5291 46.1861 96.3389 46.6823 C 96.1487 47.1785 96.0536 47.7574 96.0536 48.419 Z M 105.195 53.1825 L 105.195 43.6555 L 107.05 43.6555 L 107.05 53.1825 L 105.195 53.1825 Z M 106.132 42.1855 C 105.81 42.1855 105.532 42.078 105.301 41.8629 C 105.073 41.6438 104.96 41.3833 104.96 41.0814 C 104.96 40.7754 105.073 40.5149 105.301 40.2999 C 105.532 40.0807 105.81 39.9712 106.132 39.9712 C 106.455 39.9712 106.73 40.0807 106.957 40.2999 C 107.189 40.5149 107.304 40.7754 107.304 41.0814 C 107.304 41.3833 107.189 41.6438 106.957 41.8629 C 106.73 42.078 106.455 42.1855 106.132 42.1855 Z M 111.574 47.5258 L 111.574 53.1825 L 109.72 53.1825 L 109.72 43.6555 L 111.5 43.6555 L 111.5 45.2061 L 111.618 45.2061 C 111.837 44.7016 112.18 44.2964 112.647 43.9904 C 113.119 43.6844 113.712 43.5314 114.427 43.5314 C 115.077 43.5314 115.645 43.6679 116.133 43.9408 C 116.621 44.2095 116.999 44.6106 117.268 45.1441 C 117.537 45.6775 117.671 46.337 117.671 47.1227 L 117.671 53.1825 L 115.817 53.1825 L 115.817 47.3459 C 115.817 46.6554 115.637 46.1158 115.277 45.7271 C 114.917 45.3343 114.423 45.1379 113.795 45.1379 C 113.365 45.1379 112.982 45.2309 112.647 45.417 C 112.316 45.603 112.054 45.8759 111.86 46.2357 C 111.669 46.5913 111.574 47.0213 111.574 47.5258 Z M 120.333 53.1825 L 120.333 43.6555 L 122.188 43.6555 L 122.188 53.1825 L 120.333 53.1825 Z M 121.27 42.1855 C 120.947 42.1855 120.67 42.078 120.439 41.8629 C 120.211 41.6438 120.097 41.3833 120.097 41.0814 C 120.097 40.7754 120.211 40.5149 120.439 40.2999 C 120.67 40.0807 120.947 39.9712 121.27 39.9712 C 121.592 39.9712 121.867 40.0807 122.095 40.2999 C 122.326 40.5149 122.442 40.7754 122.442 41.0814 C 122.442 41.3833 122.326 41.6438 122.095 41.8629 C 121.867 42.078 121.592 42.1855 121.27 42.1855 Z M 126.712 40.4798 L 126.712 53.1825 L 124.857 53.1825 L 124.857 40.4798 L 126.712 40.4798 Z" stroke-linecap="round" />
</g>
		<g transform="matrix(1 0 0 1 -56.07 -16.03)"  >
<path style="stroke: none; stroke-width: 1; stroke-dasharray: none; stroke-linecap: butt; stroke-dashoffset: 0; stroke-linejoin: miter; stroke-miterlimit: 4; fill: rgb(60,239,40); fill-rule: nonzero; opacity: 1;" vector-effect="non-scaling-stroke"  transform=" translate(-16.02, -17.51)" d="M 11.2533 27.8311 L 7.28369 7.18921 L 24.7499 17.5102 L 16.0168 19.8919 L 11.2533 27.8311 Z" stroke-linecap="round" />
</g>
		<g transform="matrix(1 0 0 1 -55.61 -15.73)"  >
<path style="stroke: rgb(255,255,255); stroke-width: 1.59; stroke-dasharray: none; stroke-linecap: square; stroke-dashoffset: 0; stroke-linejoin: miter; stroke-miterlimit: 4; fill: rgb(60,239,40); fill-rule: nonzero; opacity: 1;" vector-effect="non-scaling-stroke"  transform=" translate(-16.47, -17.81)" d="M 7.68758 6.5057 L 6.1715 5.60983 L 6.50406 7.33914 L 10.4737 27.9811 L 10.8658 30.0201 L 11.9341 28.2396 L 16.5335 20.5739 L 24.9588 18.2761 L 26.7706 17.782 L 25.1538 16.8267 L 7.68758 6.5057 Z" stroke-linecap="round" />
</g>
</g>
</g>
<g transform="matrix(1.47 0 0 0.33 549.87 553.43)" id="92fa7be8-2a47-4f21-ad85-efb9742fafe8"  >
<rect style="stroke: rgb(0,0,0); stroke-width: 0; stroke-dasharray: none; stroke-linecap: butt; stroke-dashoffset: 0; stroke-linejoin: miter; stroke-miterlimit: 4; fill: rgb(60,238,41); fill-rule: nonzero; opacity: 1;" vector-effect="non-scaling-stroke"  x="-33.085" y="-33.085" rx="0" ry="0" width="66.17" height="66.17" />
</g>
<g transform="matrix(1 0 0 1 551 553.88)" style="" id="f6de915d-d773-4790-873d-2cfd9ddc7510"  >
		<text xml:space="preserve" font-family="Lato" font-size="15" font-style="normal" font-weight="700" style="stroke: none; stroke-width: 1; stroke-dasharray: none; stroke-linecap: butt; stroke-dashoffset: 0; stroke-linejoin: miter; stroke-miterlimit: 4; fill: rgb(255,255,255); fill-rule: nonzero; opacity: 1; white-space: pre;" ><tspan x="-50.16" y="4.71" >S</tspan><tspan x="-41.89" y="4.71" >a</tspan><tspan x="-33.81" y="4.71" >m</tspan><tspan x="-20.96" y="4.71" >i</tspan><tspan x="-16.67" y="4.71" style="white-space: pre; "> </tspan><tspan x="-13.55" y="4.71" >E</tspan><tspan x="-4.73" y="4.71" >l</tspan><tspan x="-0.44" y="4.71" >m</tspan><tspan x="12.41" y="4.71" >a</tspan><tspan x="20.49" y="4.71" >d</tspan><tspan x="29.27" y="4.71" >a</tspan><tspan x="37.34" y="4.71" >n</tspan><tspan x="46.1" y="4.71" >i</tspan></text>
</g>
</svg>